<?xml version="1.0" encoding="UTF-8"?>
<svg width="491.7" height="296.51" version="1.1" xmlns="http://www.w3.org/2000/svg" xmlns:cc="http://creativecommons.org/ns#" xmlns:dc="http://purl.org/dc/elements/1.1/" xmlns:rdf="http://www.w3.org/1999/02/22-rdf-syntax-ns#">
 <metadata>
  <rdf:RDF>
   <cc:Work rdf:about="">
    <dc:format>image/svg+xml</dc:format>
    <dc:type rdf:resource="http://purl.org/dc/dcmitype/StillImage"/>
    <dc:title/>
   </cc:Work>
  </rdf:RDF>
 </metadata>
 <g transform="translate(-104.15 -384.11)">
  <g fill="#036">
   <path d="m570.32 633.91h3.7893v-9.5308c0-1.7439 0.88593-3.3324 2.5645-3.3324 1.4082 0 2.0174 0.97919 2.0174 2.9344v9.9287h3.7893v-9.5308c0-1.7439 0.88593-3.3324 2.5645-3.3324 1.4051 0 2.0174 0.97919 2.0174 2.9344v9.9287h3.7893v-9.7142c0-3.8204-1.1004-6.2637-4.5229-6.2637-2.3221 0-3.4505 1.4051-4.2152 2.5055-0.45695-0.85485-1.3118-2.5055-3.9727-2.5055-2.1666 0-3.3914 1.4983-3.9696 2.7169h-0.0621c0-0.82376-0.0933-1.6475-0.12125-2.4744h-3.7893c0.0621 0.58128 0.12125 1.4361 0.12125 2.5676v13.168zm-4.2422-15.734h-3.7893v9.0116c0 2.0174-0.5813 3.8515-2.5956 3.8515-1.5885 0-2.2599-1.0103-2.2599-3.4225v-9.4406h-3.7893v10.143c0 3.1769 1.0693 5.8347 4.6442 5.8347 2.4713 0 3.4536-1.4952 4.1841-2.6578l-0.0311-0.0311 0.0933 0.0311c0 0.79578 0.0901 1.6195 0.12438 2.4153h3.5406c-0.0901-0.70253-0.12125-1.6196-0.12125-2.5987v-13.137zm-23.973 15.734h3.7893v-8.6138c0-2.9344 1.7128-3.8826 3.2671-3.8826 0.39789 0 0.73673 0.0621 1.0693 0.15543v-3.5468c-0.21139-0.028-0.39479-0.0901-0.63725-0.0901-2.3563 0-3.5468 1.8931-4.0069 3.1148h-0.0591c0-0.945-0.0901-1.9242-0.12438-2.8723h-3.4194c0.0933 0.70252 0.12125 1.6226 0.12125 2.5987v13.137zm-10.376-15.734h-2.5055v2.779h2.5055v8.6169c0 3.2982 1.5916 4.582 4.3986 4.582 1.1315 0 1.9584-0.24246 2.5366-0.51601v-2.692c-0.27356 0.15231-0.7647 0.33882-1.433 0.33882-1.1035 0-1.7128-0.48804-1.7128-2.1698v-8.1599h3.1458v-2.779h-3.1458v-4.3986l-3.7893 1.1595v3.2391zm-18.172 15.734h3.7862v-9.164c0-2.0174 0.70252-3.6992 2.692-3.6992 1.5543 0 2.1666 1.0103 2.1666 3.4256v9.4375h3.7893v-10.143c0-3.1769-1.0693-5.8347-4.6442-5.8347-2.5676 0-3.637 1.7128-4.1841 2.6578h0.028-0.0901c0-0.79267-0.0901-1.6196-0.12437-2.4153h-3.5437c0.0933 0.70252 0.12438 1.6226 0.12438 2.5987v13.137zm-12.96-9.2258c0-2.0796 0.82687-4.1872 2.8132-4.1872 1.7097 0 2.6236 1.4082 2.6236 4.1872h-5.4368zm8.1257 5.4679c-0.69941 0.51912-1.803 1.2216-4.1219 1.2216-2.9345 0-4.0038-1.6196-4.0038-4.3053h9.1049v-0.73361c0-6.416-2.9034-8.4024-6.2917-8.4024-4.0069 0-6.4782 3.6339-6.4782 8.3402 0 4.2462 2.1977 7.8832 7.2709 7.8832 2.2599 0 3.9106-0.67457 4.7032-1.0103l-0.18341-2.9935zm-25.563 3.7579h10.724v-2.8723h-6.8139l6.5994-9.624v-3.2391h-10.295v2.8723h6.5093l-6.7238 9.596v3.2671zm-15.911 0h3.7862v-9.164c0-2.0174 0.70564-3.6992 2.6889-3.6992 1.5574 0 2.1698 1.0103 2.1698 3.4256v9.4375h3.7893v-10.143c0-3.1769-1.0693-5.8347-4.6442-5.8347-2.5676 0-3.637 1.7128-4.1841 2.6578h0.028-0.0901c0-0.79267-0.0901-1.6196-0.12438-2.4153h-3.5437c0.0933 0.70252 0.12437 1.6226 0.12437 2.5987v13.137zm-12.959-9.2258c0-2.0796 0.82688-4.1872 2.8132-4.1872 1.7097 0 2.6267 1.4082 2.6267 4.1872h-5.4399zm8.1257 5.4679c-0.69942 0.51912-1.803 1.2216-4.1219 1.2216-2.9345 0-4.0038-1.6196-4.0038-4.3053h9.1049v-0.73361c0-6.416-2.9034-8.4024-6.2917-8.4024-4.0069 0-6.4782 3.6339-6.4782 8.3402 0 4.2462 2.1977 7.8832 7.2709 7.8832 2.2599 0 3.9074-0.67457 4.7032-1.0103l-0.18341-2.9935zm-28.134 3.7579h3.7893v-9.164c0-2.0174 0.70252-3.6992 2.6889-3.6992 1.5574 0 2.1666 1.0103 2.1666 3.4256v9.4375h3.7893v-10.143c0-3.1769-1.0693-5.8347-4.6442-5.8347-2.3501 0-3.236 1.2838-3.9074 2.2599h-0.0933v-9.195h-3.7893v22.913zm-3.4495-3.3914c-0.51603 0.33882-1.7719 0.7647-2.6889 0.7647-2.9034 0-4.3053-2.2599-4.3053-5.1944 0-3.3603 1.2496-5.2845 4.125-5.2845 1.0383 0 1.9832 0.42587 2.6578 0.7647l0.21139-2.9966c-0.70254-0.27355-2.1076-0.64036-3.2982-0.64036-5.2845 0-7.6066 3.637-7.6066 8.1257 0 4.4608 2.1977 8.0977 7.3921 8.0977 1.5263 0 2.8412-0.30775 3.7271-0.64347l-0.21448-2.9935zm-23.435-5.8344c0-2.0796 0.82376-4.1872 2.8101-4.1872 1.7128 0 2.6267 1.4082 2.6267 4.1872h-5.4368zm8.1288 5.4679c-0.70563 0.51912-1.8061 1.2216-4.1281 1.2216-2.9314 0-4.0007-1.6196-4.0007-4.3053h9.1018v-0.73361c0-6.416-2.9034-8.4024-6.2917-8.4024-4.0038 0-6.4782 3.6339-6.4782 8.3402 0 4.2462 2.1977 7.8832 7.274 7.8832 2.2599 0 3.9105-0.67457 4.7032-1.0103l-0.18029-2.9935zm-24.993-8.2787v-6.2948h1.5854c2.2008 0 3.4847 0.61238 3.4847 3.0557 0 2.1698-1.4051 3.2391-3.4847 3.2391h-1.5854zm-3.9105 12.036h3.9105v-9.164h0.88283c1.4361 0 2.4464 0.55021 2.9624 2.2288l2.1107 6.9352h4.1561l-2.7822-8.1257c-0.66834-1.9864-1.5605-2.3532-2.35-2.4744v-0.0932c2.3811-0.3668 4.1219-2.2288 4.1219-5.011 0-3.9106-2.5677-5.6202-6.3538-5.6202h-6.6585v21.325zm-23.175-0.5185c0.78957 0.30462 2.4122 0.7647 4.3675 0.7647 3.4194 0 5.8658-1.7439 5.8658-4.6442 0-1.834-0.97918-2.72-2.9345-3.9727l-1.8651-1.1906c-1.0973-0.70254-1.7688-1.1626-1.7688-2.0174 0-0.945 0.64035-1.5294 2.1666-1.5294 1.3771 0 2.3842 0.33883 3.3324 0.70564l0.21137-2.9345c-0.3637-0.12125-1.9242-0.64037-3.9416-0.64037-3.3261 0-5.4337 2.291-5.4337 4.4608 0 2.4744 1.7377 3.4816 3.3292 4.4297l1.5574 0.91392c1.374 0.79578 1.6817 1.3771 1.6817 1.9895 0 1.2217-1.0724 1.5574-2.4464 1.5574-1.7719 0-3.3324-0.79577-3.9416-1.0382l-0.18029 3.1458zm-12.351-8.707c0-2.0796 0.82687-4.1872 2.8132-4.1872 1.7097 0 2.6267 1.4082 2.6267 4.1872h-5.4399zm8.1288 5.4679c-0.70253 0.51912-1.803 1.2216-4.125 1.2216-2.9345 0-4.0038-1.6196-4.0038-4.3053h9.1049v-0.73361c0-6.416-2.9003-8.4024-6.2917-8.4024-4.0038 0-6.4782 3.6339-6.4782 8.3402 0 4.2462 2.2008 7.8832 7.2709 7.8832 2.2599 0 3.9105-0.67457 4.7032-1.0103l-0.1803-2.9935zm-19.855 3.7595h3.7893v-22.913h-3.7893v22.913zm-8.343-6.8136c0 2.8101-0.82686 4.4918-3.0868 4.4918-1.4641 0-2.4122-0.97919-2.4122-2.4153 0-2.291 1.9242-2.9624 5.1633-2.9624h0.33571v0.88594zm-7.2398-4.9519c0.7305-0.60928 2.4122-1.5263 4.3084-1.5263 2.1666 0 2.9314 1.4392 2.9314 2.9966v0.57818h-0.7647c-4.7965 0-8.278 1.0693-8.278 5.3467 0 2.9344 2.2599 4.6131 4.7032 4.6131 2.263 0 3.4536-1.1004 4.4017-2.3811h0.0591c0 0.76158 0.0311 1.5263 0.21449 2.1356h3.4225c-0.0932-0.60928-0.21449-1.6475-0.21449-2.779v-6.873c0-3.9416-1.1315-6.3228-6.0181-6.3228-2.4153 0-3.9105 0.67143-4.9799 1.1595l0.21449 3.0526zm-17.748 11.764h3.7893v-9.164c0-2.0174 0.70252-3.6992 2.6889-3.6992 1.5574 0 2.1698 1.0103 2.1698 3.4256v9.4375h3.7862v-10.143c0-3.1769-1.0693-5.8347-4.6442-5.8347-2.5646 0-3.6339 1.7128-4.1841 2.6578h0.028-0.0901c0-0.79267-0.0901-1.6196-0.12125-2.4153h-3.5437c0.0901 0.70252 0.12125 1.6226 0.12125 2.5987v13.137zm-4.3348-15.734h-3.7862v9.0116c0 2.0174-0.5813 3.8515-2.5987 3.8515-1.5885 0-2.2599-1.0103-2.2599-3.4225v-9.4406h-3.7893v10.143c0 3.1769 1.0693 5.8347 4.6442 5.8347 2.4744 0 3.4536-1.4952 4.1841-2.6578l-0.028-0.0311 0.0901 0.0311c0 0.79578 0.0901 1.6195 0.12125 2.4153h3.5468c-0.0932-0.70253-0.12438-1.6196-0.12438-2.5987v-13.137zm-37.208 15.734h3.7862v-9.5308c0-1.7439 0.88905-3.3324 2.5677-3.3324 1.405 0 2.0174 0.97919 2.0174 2.9344v9.9287h3.7862v-9.5308c0-1.7439 0.88904-3.3324 2.5676-3.3324 1.405 0 2.0143 0.97919 2.0143 2.9344v9.9287h3.7924v-9.7142c0-3.8204-1.1004-6.2637-4.5229-6.2637-2.3221 0-3.4536 1.4051-4.2183 2.5055-0.45695-0.85485-1.3118-2.5055-3.9696-2.5055-2.1698 0-3.3914 1.4983-3.9727 2.7169h-0.0621c0-0.82376-0.0901-1.6475-0.12125-2.4744h-3.7893c0.0621 0.58128 0.12438 1.4361 0.12438 2.5676v13.168zm-24.684 0h3.7893v-9.5308c0-1.7439 0.88594-3.3324 2.5646-3.3324 1.4082 0 2.0174 0.97919 2.0174 2.9344v9.9287h3.7893v-9.5308c0-1.7439 0.88593-3.3324 2.5645-3.3324 1.4051 0 2.0174 0.97919 2.0174 2.9344v9.9287h3.7862v-9.7142c0-3.8204-1.0973-6.2637-4.5198-6.2637-2.3221 0-3.4536 1.4051-4.2152 2.5055-0.46006-0.85485-1.3149-2.5055-3.9727-2.5055-2.1698 0-3.3914 1.4983-3.9727 2.7169h-0.059c0-0.82376-0.0932-1.6475-0.12125-2.4744h-3.7893c0.0591 0.58128 0.12125 1.4361 0.12125 2.5676v13.168zm-17.654-7.8814c0 6.5994 3.7271 8.1257 6.9351 8.1257 3.208 0 6.9041-1.5263 6.9041-8.1257 0-6.416-3.696-8.0946-6.9041-8.0946-3.208 0-6.9351 1.6786-6.9351 8.0946m3.9105 0c0-2.6267 0.5813-5.4088 3.0246-5.4088 2.4433 0 2.9935 2.7821 2.9935 5.4088s-0.55021 5.4368-2.9935 5.4368c-2.4433 0-3.0246-2.8101-3.0246-5.4368m-20.254 7.8814h3.9105v-10.022h0.0901l6.4191 10.022h4.7343l-7.8211-11.275 7.2398-10.05h-4.4918l-6.0803 9.0427h-0.0901v-9.0427h-3.9105v21.325zm343.58 25.697c0-2.0796 0.82687-4.1872 2.8132-4.1872 1.7097 0 2.6267 1.4051 2.6267 4.1872h-5.4399zm8.1288 5.4679c-0.70252 0.51912-1.8061 1.2217-4.125 1.2217-2.9345 0-4.0038-1.6196-4.0038-4.3084h9.1049v-0.73361c0-6.416-2.9034-8.4024-6.2917-8.4024-4.0038 0-6.4782 3.637-6.4782 8.3433 0 4.2463 2.1977 7.8832 7.2709 7.8832 2.2599 0 3.9105-0.67455 4.7032-1.0103l-0.1803-2.9935zm-24.835-4.0638c0-2.9655 0.7647-5.3778 2.9935-5.3778 2.1977 0 2.7821 1.834 2.7821 5.471 0 3.1458-0.73361 5.1944-2.8412 5.1944-2.0796 0-2.9345-2.2319-2.9345-5.2876m-3.7893 14.42h3.7893v-8.8593h0.0621c0.55021 1.2216 1.803 2.5055 4.0629 2.5055 3.3914 0 5.4368-2.9935 5.4368-8.1288 0-4.3675-1.6196-8.0978-5.5301-8.0978-2.4433 0-3.5748 1.346-4.1841 2.692h-0.0901c0-1.0693-0.0621-1.9864-0.12438-2.4464h-3.5437c0.0901 0.5813 0.12125 1.5605 0.12125 2.6889v19.646zm-13.528-14.42c0-2.9655 0.7647-5.3778 2.9935-5.3778 2.1977 0 2.7821 1.834 2.7821 5.471 0 3.1458-0.73672 5.1944-2.8443 5.1944-2.0765 0-2.9314-2.2319-2.9314-5.2876m-3.7893 14.42h3.7893v-8.8593h0.0621c0.55021 1.2216 1.803 2.5055 4.0598 2.5055 3.3914 0 5.4399-2.9935 5.4399-8.1288 0-4.3675-1.6195-8.0978-5.5301-8.0978-2.4464 0-3.5748 1.346-4.1841 2.692h-0.0901c0-1.0693-0.0621-1.9864-0.12438-2.4464h-3.5437c0.0901 0.5813 0.12125 1.5605 0.12125 2.6889v19.646zm-8.6113-25.297h3.9105v-3.7271h-3.9105v3.7271zm0.0621 18.698h3.7893v-15.735h-3.7893v15.735zm-14.476 6.2e-4h10.936v-3.1179h-7.0253v-18.207h-3.9105v21.325zm-12.765 0.30558h2.5676l5.4399-21.937h-2.692l-5.3156 21.937zm-17.105 5.4999c0.91701 0.33573 2.9034 0.97609 5.4058 0.97609 5.7788 0 7.274-3.5126 7.274-8.4304v-11.61c0-0.82687 0.0621-1.6506 0.12125-2.4775h-3.4225c-0.028 0.82686-0.12125 1.6195-0.12125 2.4464h-0.12125c-0.79267-1.374-1.8651-2.6889-4.1561-2.6889-4.1219 0-5.6824 3.8204-5.6824 8.1568 0 6.357 3.3013 7.8211 5.499 7.8211 2.4744 0 3.5468-1.4362 4.1561-2.6578h0.0591v1.4983c0 2.4744-0.57819 4.9488-4.153 4.9488-1.9864 0-3.7582-0.85486-4.6442-1.3429l-0.21449 3.3603zm3.208-13.839c0-3.2111 0.7647-5.042 2.751-5.0731 1.803-0.0311 3.0526 1.7408 3.0526 5.0389 0 3.5779-0.945 5.2876-3.3261 5.2876-1.2869 0-2.4775-1.5574-2.4775-5.2534m-14.715 8.0337h3.7893v-8.6169c0-2.9345 1.7097-3.8794 3.2671-3.8794 0.3979 0 0.73363 0.0621 1.0724 0.15231v-3.5437c-0.2176-0.0311-0.401-0.0933-0.64346-0.0933-2.3532 0-3.5437 1.8962-4.0007 3.1179h-0.0621c0-0.9481-0.0901-1.9242-0.12125-2.8723h-3.4225c0.0901 0.70253 0.12125 1.6196 0.12125 2.5987v13.137zm-13.083-9.2261c0-2.0796 0.82687-4.1872 2.8132-4.1872 1.7097 0 2.6267 1.4051 2.6267 4.1872h-5.4399zm8.1257 5.4679c-0.69941 0.51912-1.7998 1.2217-4.1219 1.2217-2.9345 0-4.0038-1.6196-4.0038-4.3084h9.1049v-0.73361c0-6.416-2.9034-8.4024-6.2917-8.4024-4.0038 0-6.4782 3.637-6.4782 8.3433 0 4.2463 2.1977 7.8832 7.2709 7.8832 2.263 0 3.9105-0.67455 4.7063-1.0103l-0.18651-2.9935zm-24.832-4.1552c0-3.0557 0.85796-5.2876 2.9345-5.2876 2.1076 0 2.8412 2.0485 2.8412 5.1944 0 3.637-0.5813 5.471-2.7821 5.471-2.2288 0-2.9935-2.4122-2.9935-5.3778m-3.7862-15.002v20.227c0 1.1284-0.0311 2.1076-0.12125 2.6889h3.5437c0.0591-0.46006 0.12125-1.3771 0.12125-2.4464h0.0901c0.60927 1.3429 1.7439 2.6889 4.1841 2.6889 3.9105 0 5.5332-3.7271 5.5332-8.0946 0-5.1353-2.0485-8.1288-5.4399-8.1288-2.2599 0-3.5126 1.2838-4.0598 2.5055h-0.0653v-9.4406h-3.7862zm-14.018 22.395c0.79578 0.30464 2.4122 0.7647 4.3675 0.7647 3.4256 0 5.8658-1.7439 5.8658-4.6442 0-1.834-0.97608-2.7169-2.9314-3.9727l-1.862-1.1906c-1.1004-0.70254-1.7719-1.1626-1.7719-2.0174 0-0.9481 0.64035-1.5263 2.1698-1.5263 1.3709 0 2.3842 0.33572 3.3261 0.70254l0.21449-2.9345c-0.3637-0.12125-1.9242-0.64347-3.9385-0.64347-3.3324 0-5.4399 2.2941-5.4399 4.4639 0 2.4744 1.7439 3.4816 3.3324 4.4297l1.5574 0.91703c1.374 0.79267 1.6817 1.374 1.6817 1.9864 0 1.2217-1.0693 1.5574-2.4464 1.5574-1.7719 0-3.3292-0.79577-3.9416-1.0382l-0.1834 3.1458zm-16.157 0.52006h3.7893v-9.164c0-2.0174 0.69941-3.6992 2.6858-3.6992 1.5605 0 2.1729 1.0103 2.1729 3.4225v9.4406h3.7893v-10.143c0-3.18-1.0724-5.8378-4.6442-5.8378-2.5676 0-3.637 1.7128-4.1872 2.6578h0.028-0.0901c0-0.79268-0.0932-1.6164-0.11812-2.4122h-3.5468c0.0932 0.70253 0.12125 1.6196 0.12125 2.5987v13.137zm-12.958-9.2261c0-2.0796 0.82688-4.1872 2.8101-4.1872 1.7128 0 2.6298 1.4051 2.6298 4.1872h-5.44zm8.1288 5.4679c-0.70253 0.51912-1.803 1.2217-4.125 1.2217-2.9345 0-4.0038-1.6196-4.0038-4.3084h9.1049v-0.73361c0-6.416-2.9003-8.4024-6.2948-8.4024-4.0007 0-6.4751 3.637-6.4751 8.3433 0 4.2463 2.1977 7.8832 7.2709 7.8832 2.2599 0 3.9105-0.67455 4.7032-1.0103l-0.1803-2.9935zm-23.588 3.7582h4.4608l4.8276-15.735h-3.665l-3.2391 12.13h-0.059l-3.208-12.13h-3.9136l4.7965 15.735zm-11.367-6.8139c0 2.8101-0.82376 4.4918-3.0868 4.4918-1.4641 0-2.4122-0.97919-2.4122-2.4153 0-2.291 1.9242-2.9624 5.1633-2.9624h0.33572v0.88594zm-7.2398-4.9488c0.7305-0.61238 2.4122-1.5263 4.3084-1.5263 2.1666 0 2.9314 1.4362 2.9314 2.9935v0.57819h-0.7647c-4.7965 0-8.278 1.0693-8.278 5.3467 0 2.9345 2.2599 4.6162 4.7063 4.6162 2.2599 0 3.4505-1.1004 4.3986-2.3842h0.0591c0 0.7616 0.0311 1.5263 0.21449 2.1387h3.4225c-0.0901-0.61237-0.21449-1.6506-0.21449-2.779v-6.8761c0-3.9416-1.1315-6.3259-6.0181-6.3259-2.4153 0-3.9106 0.67455-4.9799 1.1626l0.2145 3.0557zm-14.605-0.27542v-6.2948h1.5885c2.2008 0 3.4847 0.61238 3.4847 3.0557 0 2.1698-1.405 3.2391-3.4847 3.2391h-1.5885zm-3.9105 12.039h3.9105v-9.1671h0.88593c1.4362 0 2.4464 0.5502 2.9656 2.2319l2.1076 6.9352h4.1561l-2.7821-8.1288c-0.67145-1.9864-1.5574-2.3532-2.3532-2.4744v-0.0901c2.3842-0.3668 4.125-2.2319 4.125-5.011 0-3.9105-2.5645-5.6202-6.3538-5.6202h-6.6616v21.325zm-11.329-7.1204h7.0564v-3.1179h-7.0564v3.1179zm-16.343 7.1192h3.7862v-9.164c0-2.0174 0.70564-3.6992 2.6889-3.6992 1.5605 0 2.1698 1.0103 2.1698 3.4225v9.4406h3.7893v-10.143c0-3.18-1.0693-5.8378-4.6442-5.8378-2.5676 0-3.6339 1.7128-4.1841 2.6578h0.028-0.0901c0-0.79268-0.0932-1.6164-0.12437-2.4122h-3.5437c0.0933 0.70253 0.12438 1.6196 0.12438 2.5987v13.137zm-12.958-9.2261c0-2.0796 0.82687-4.1872 2.8101-4.1872 1.7128 0 2.6298 1.4051 2.6298 4.1872h-5.4399zm8.1257 5.4679c-0.70252 0.51912-1.803 1.2217-4.125 1.2217-2.9314 0-4.0007-1.6196-4.0007-4.3084h9.1049v-0.73361c0-6.416-2.9034-8.4024-6.2948-8.4024-4.0038 0-6.4782 3.637-6.4782 8.3433 0 4.2463 2.2008 7.8832 7.274 7.8832 2.2599 0 3.9105-0.67455 4.7032-1.0103l-0.18341-2.9935zm-25.322-4.2478c0-3.1458 0.73361-5.1944 2.8412-5.1944 2.0765 0 2.9314 2.2319 2.9314 5.2876 0 2.9624-0.76159 5.3778-2.9935 5.3778-2.2008 0-2.779-1.834-2.779-5.471m5.7726-14.909v9.4406h-0.0591c-0.55021-1.2217-1.803-2.5055-4.0629-2.5055-3.3914 0-5.4399 2.9935-5.4399 8.1257 0 4.3706 1.6196 8.0977 5.5301 8.0977 2.4433 0 3.5748-1.346 4.1872-2.6889h0.0901c0 1.0693 0.0621 1.9864 0.12125 2.4464h3.5468c-0.0933-0.58128-0.12438-1.5605-0.12438-2.692v-20.224h-3.7893zm-25.902 22.915h3.7893v-9.164c0-2.0174 0.70253-3.6992 2.6889-3.6992 1.5574 0 2.1666 1.0103 2.1666 3.4225v9.4406h3.7893v-10.143c0-3.18-1.0693-5.8378-4.6442-5.8378-2.5646 0-3.6339 1.7128-4.1841 2.6578h0.0311-0.0933c0-0.79268-0.0901-1.6164-0.12125-2.4122h-3.5437c0.0901 0.70253 0.12125 1.6196 0.12125 2.5987v13.137zm-8.5506-18.698h3.9105v-3.7271h-3.9105v3.7271zm0.0621 18.698h3.7893v-15.735h-3.7893v15.735zm-8.7691 6.2e-4h3.5437v-21.325h-5.6513l-4.4918 15.916h-0.0591l-4.4017-15.916h-5.8347v21.325h3.5437v-17.784h0.0621l5.1011 17.784h2.779l5.3467-17.784h0.0621v17.784zm-33.231-122.24-31.9-49.497 31.113-35.043h-30.955l-22.786 29.54v-56.883h-25.77v111.88h25.77v-25.456l5.0296-5.5021 17.597 30.958h31.9z"/>
   <path d="m433.5 418.94c0 1.5729 1.2745 2.8474 2.8505 2.8474 1.5698 0 2.8412-1.2745 2.8412-2.8474 0-1.5698-1.2714-2.8443-2.8412-2.8443-1.4424 0-2.8505 1.1502-2.8505 2.8443"/>
   <path d="m431.13 433.81c0 2.8816 2.3345 5.2192 5.2192 5.2192 2.8785 0 5.2161-2.3376 5.2161-5.2192 0-2.8816-2.3376-5.2192-5.2161-5.2192-2.8847 0-5.2192 2.3376-5.2192 5.2192"/>
   <path d="m429.24 448.92c0 3.9292 3.1831 7.1154 7.1186 7.1154 3.9261 0 7.1092-3.1862 7.1092-7.1154 0-3.9323-3.1831-7.1186-7.1092-7.1186-3.9354 0-7.1186 3.1862-7.1186 7.1186"/>
   <path d="m426.39 463.7c0 5.5021 4.4608 9.9629 9.966 9.9629 5.499 0 9.9566-4.4608 9.9566-9.9629s-4.4576-9.9629-9.9566-9.9629c-5.5052 0-9.966 4.4608-9.966 9.9629"/>
   <path d="m425.44 493.41c0 6.0244 4.8835 10.911 10.914 10.911 6.0212 0 10.902-4.8866 10.902-10.911 0-6.0243-4.8804-10.911-10.902-10.911-6.0306 0-10.914 4.8866-10.914 10.911"/>
   <path d="m433.98 404.08c0 1.3087 1.0631 2.3718 2.3749 2.3718 1.3056 0 2.3687-1.0631 2.3687-2.3718 0-1.3087-1.0631-2.3718-2.3687-2.3718-1.3118 0-2.3749 1.0631-2.3749 2.3718"/>
   <path d="m464.74 418.94c0 1.0507-0.84864 1.8993-1.8962 1.8993-1.0476 0-1.8993-0.84863-1.8993-1.8993 0-1.0476 0.85174-1.8962 1.8993-1.8962 1.0476 0 1.8962 0.84864 1.8962 1.8962"/>
   <path d="m478 433.81c0 1.0476-0.85174 1.8993-1.8993 1.8993s-1.8993-0.85174-1.8993-1.8993c0-1.0476 0.85174-1.8962 1.8993-1.8962s1.8993 0.84863 1.8993 1.8962"/>
   <path d="m491.72 448.88c0 1.0476-0.85174 1.8993-1.8993 1.8993-1.0476 0-1.8962-0.85174-1.8962-1.8993 0-1.0476 0.84863-1.8962 1.8962-1.8962 1.0476 0 1.8993 0.84864 1.8993 1.8962"/>
   <path d="m452 418.94c0 1.3118-1.0631 2.3749-2.3718 2.3749-1.3087 0-2.3718-1.0631-2.3718-2.3749 0-1.3087 1.0631-2.3718 2.3718-2.3718 1.3087 0 2.3718 1.0631 2.3718 2.3718"/>
   <path d="m465.69 433.81c0 1.5729-1.2745 2.8474-2.8474 2.8474-1.5698 0-2.8443-1.2745-2.8443-2.8474 0-1.5729 1.2745-2.8474 2.8443-2.8474 1.5729 0 2.8474 1.2745 2.8474 2.8474"/>
   <path d="m453.9 433.81c0 2.3563-1.9118 4.2711-4.2711 4.2711-2.3594 0-4.2649-1.9149-4.2649-4.2711 0-2.3594 1.9055-4.268 4.2649-4.268 2.3594 0 4.2711 1.9086 4.2711 4.268"/>
   <path d="m479.42 448.88c0 1.834-1.489 3.323-3.323 3.323-1.8309 0-3.3168-1.489-3.3168-3.323 0-1.834 1.4859-3.3199 3.3168-3.3199 1.834 0 3.323 1.4859 3.323 3.3199"/>
   <path d="m492.28 463.7c0 1.3087-1.0631 2.3718-2.3718 2.3718-1.3118 0-2.3718-1.0631-2.3718-2.3718 0-1.3118 1.06-2.3718 2.3718-2.3718 1.3087 0 2.3718 1.06 2.3718 2.3718"/>
   <path d="m492.75 478.54c0 1.5729-1.2745 2.8474-2.8474 2.8474-1.5698 0-2.8443-1.2745-2.8443-2.8474 0-1.5729 1.2745-2.8474 2.8443-2.8474 1.5729 0 2.8474 1.2745 2.8474 2.8474"/>
   <path d="m468.06 448.88c0 2.8816-2.3345 5.2192-5.2161 5.2192s-5.2192-2.3376-5.2192-5.2192c0-2.8816 2.3376-5.2161 5.2192-5.2161s5.2161 2.3345 5.2161 5.2161"/>
   <path d="m455.79 448.88c0 3.407-2.7573 6.1673-6.1673 6.1673-3.4038 0-6.1642-2.7604-6.1642-6.1673 0-3.407 2.7604-6.1673 6.1642-6.1673 3.4101 0 6.1673 2.7604 6.1673 6.1673"/>
   <path d="m480.37 463.63c0 2.3594-1.9149 4.2711-4.2711 4.2711s-4.268-1.9118-4.268-4.2711c0-2.3594 1.9118-4.268 4.268-4.268s4.2711 1.9086 4.2711 4.268"/>
   <path d="m469.96 463.63c0 3.9292-3.18 7.1154-7.1123 7.1154-3.9292 0-7.1154-3.1862-7.1154-7.1154 0-3.9261 3.1862-7.1154 7.1154-7.1154 3.9323 0 7.1123 3.1894 7.1123 7.1154"/>
   <path d="m457.69 463.63c0 4.4514-3.609 8.0604-8.0636 8.0604-4.4514 0-8.0635-3.609-8.0635-8.0604 0-4.4545 3.6121-8.0635 8.0635-8.0635 4.4545 0 8.0636 3.609 8.0636 8.0635"/>
   <path d="m482.26 478.58c0 3.407-2.7604 6.1673-6.1673 6.1673-3.4038 0-6.1642-2.7604-6.1642-6.1673 0-3.4038 2.7604-6.1673 6.1642-6.1673 3.407 0 6.1673 2.7635 6.1673 6.1673"/>
   <path d="m470.91 478.58c0 4.4514-3.609 8.0635-8.0636 8.0635-4.4545 0-8.0635-3.6121-8.0635-8.0635 0-4.4514 3.609-8.0636 8.0635-8.0636 4.4545 0 8.0636 3.6121 8.0636 8.0636"/>
   <path d="m458.64 493.41c0 4.9768-4.0349 9.0148-9.0148 9.0148-4.9768 0-9.0085-4.038-9.0085-9.0148 0-4.9737 4.0318-9.0116 9.0085-9.0116 4.9799 0 9.0148 4.038 9.0148 9.0116"/>
   <path d="m451.53 404.13c0 1.0476-0.85175 1.8962-1.8993 1.8962-1.0476 0-1.8962-0.84863-1.8962-1.8962 0-1.0476 0.84862-1.8962 1.8962-1.8962 1.0476 0 1.8993 0.84864 1.8993 1.8962"/>
   <path d="m477.28 418.94c0 0.65279-0.53156 1.1812-1.1844 1.1812-0.64968 0-1.1812-0.52845-1.1812-1.1812 0-0.64968 0.53157-1.1812 1.1812-1.1812 0.65279 0 1.1844 0.53157 1.1844 1.1812"/>
   <path d="m492.67 493.37c0-1.5729-1.2745-2.8474-2.8474-2.8474-1.5698 0-2.8443 1.2745-2.8443 2.8474s1.2745 2.8474 2.8443 2.8474c1.5729 0 2.8474-1.2745 2.8474-2.8474"/>
   <path d="m482.26 493.41c0-3.407-2.7604-6.1673-6.1704-6.1673-3.4007 0-6.1611 2.7604-6.1611 6.1673 0 3.4038 2.7604 6.1704 6.1611 6.1704 3.4101 0 6.1704-2.7666 6.1704-6.1704"/>
   <path d="m470.87 493.41c0-4.4514-3.609-8.0636-8.0636-8.0636-4.4514 0-8.0635 3.6121-8.0635 8.0636 0 4.4545 3.6121 8.0666 8.0635 8.0666 4.4545 0 8.0636-3.6121 8.0636-8.0666"/>
   <path d="m425.44 478.58c0 6.0243 4.8835 10.911 10.914 10.911 6.0212 0 10.902-4.8866 10.902-10.911 0-6.0244-4.8804-10.911-10.902-10.911-6.0306 0-10.914 4.8866-10.914 10.911"/>
   <path d="m458.64 478.58c0 4.9768-4.0349 9.0148-9.0148 9.0148-4.9768 0-9.0085-4.038-9.0085-9.0148 0-4.9768 4.0318-9.0116 9.0085-9.0116 4.9799 0 9.0148 4.0349 9.0148 9.0116"/>
   <path d="m437.52 390.29c0 0.65279-0.53157 1.1812-1.1844 1.1812-0.64658 0-1.1781-0.52845-1.1781-1.1812 0-0.6528 0.53156-1.1812 1.1781-1.1812 0.65278 0 1.1844 0.52845 1.1844 1.1812"/>
   <path d="m439.2 418.94c0 1.5729-1.2776 2.8474-2.8536 2.8474-1.5667 0-2.8412-1.2745-2.8412-2.8474 0-1.5698 1.2745-2.8443 2.8412-2.8443 1.4424 0 2.8536 1.1502 2.8536 2.8443"/>
   <path d="m441.57 433.81c0 2.8816-2.3345 5.2192-5.2161 5.2192s-5.2192-2.3376-5.2192-5.2192c0-2.8816 2.3376-5.2192 5.2192-5.2192s5.2161 2.3376 5.2161 5.2192"/>
   <path d="m443.46 448.92c0 3.9292-3.1831 7.1154-7.1186 7.1154-3.9261 0-7.1092-3.1862-7.1092-7.1154 0-3.9292 3.1832-7.1154 7.1092-7.1154 3.9354 0 7.1186 3.1862 7.1186 7.1154"/>
   <path d="m446.31 463.7c0 5.5021-4.4608 9.9629-9.966 9.9629-5.499 0-9.9566-4.4608-9.9566-9.9629 0-5.5021 4.4576-9.9598 9.9566-9.9598 5.5052 0 9.966 4.4576 9.966 9.9598"/>
   <path d="m447.26 493.41c0 6.0244-4.8835 10.911-10.914 10.911-6.0212 0-10.902-4.8866-10.902-10.911 0-6.0243 4.8804-10.911 10.902-10.911 6.0306 0 10.914 4.8866 10.914 10.911"/>
   <path d="m438.72 404.08c0 1.3087-1.0631 2.3718-2.3749 2.3718-1.3056 0-2.3687-1.0631-2.3687-2.3718 0-1.3087 1.0631-2.3718 2.3687-2.3718 1.3118 0 2.3749 1.0631 2.3749 2.3718"/>
   <path d="m407.95 418.94c0 1.0507 0.84863 1.8993 1.8962 1.8993 1.0476 0 1.8962-0.84863 1.8962-1.8993 0-1.0476-0.84863-1.8962-1.8962-1.8962-1.0476 0-1.8962 0.84864-1.8962 1.8962"/>
   <path d="m394.7 433.81c0 1.0476 0.85174 1.8993 1.8993 1.8993 1.0476 0 1.8993-0.85174 1.8993-1.8993 0-1.0476-0.85174-1.8962-1.8993-1.8962-1.0476 0-1.8993 0.84863-1.8993 1.8962"/>
   <path d="m380.98 448.88c0 1.0476 0.85174 1.8993 1.8993 1.8993 1.0476 0 1.8962-0.85174 1.8962-1.8993 0-1.0476-0.84863-1.8962-1.8962-1.8962-1.0476 0-1.8993 0.84864-1.8993 1.8962"/>
   <path d="m420.7 418.94c0 1.3118 1.0631 2.3749 2.3718 2.3749 1.3087 0 2.3718-1.0631 2.3718-2.3749 0-1.3087-1.0631-2.3718-2.3718-2.3718-1.3087 0-2.3718 1.0631-2.3718 2.3718"/>
   <path d="m407.01 433.81c0 1.5729 1.2745 2.8474 2.8474 2.8474 1.5698 0 2.8412-1.2745 2.8412-2.8474 0-1.5729-1.2714-2.8474-2.8412-2.8474-1.5729 0-2.8474 1.2745-2.8474 2.8474"/>
   <path d="m418.8 433.81c0 2.3563 1.9118 4.2711 4.2711 4.2711 2.3594 0 4.2649-1.9149 4.2649-4.2711 0-2.3594-1.9055-4.268-4.2649-4.268-2.3594 0-4.2711 1.9086-4.2711 4.268"/>
   <path d="m393.28 448.88c0 1.834 1.489 3.3199 3.3199 3.3199 1.834 0 3.3199-1.4859 3.3199-3.3199 0-1.834-1.4859-3.3199-3.3199-3.3199-1.8309 0-3.3199 1.4859-3.3199 3.3199"/>
   <path d="m380.42 463.7c0 1.3118 1.0662 2.3718 2.3749 2.3718 1.3087 0 2.3687-1.06 2.3687-2.3718 0-1.3087-1.06-2.3718-2.3687-2.3718-1.3087 0-2.3749 1.0631-2.3749 2.3718"/>
   <path d="m379.95 478.54c0 1.5729 1.2745 2.8474 2.8474 2.8474 1.5729 0 2.8443-1.2745 2.8443-2.8474 0-1.5729-1.2714-2.8474-2.8443-2.8474-1.5729 0-2.8474 1.2745-2.8474 2.8474"/>
   <path d="m404.63 448.88c0 2.8816 2.3345 5.2192 5.2192 5.2192 2.8785 0 5.2161-2.3376 5.2161-5.2192 0-2.8816-2.3376-5.2161-5.2161-5.2161-2.8847 0-5.2192 2.3345-5.2192 5.2161"/>
   <path d="m416.9 448.88c0 3.407 2.7542 6.1673 6.1673 6.1673 3.4007 0 6.1642-2.7604 6.1642-6.1673 0-3.407-2.7635-6.1673-6.1642-6.1673-3.4132 0-6.1673 2.7604-6.1673 6.1673"/>
   <path d="m392.33 463.63c0 2.3563 1.9118 4.2711 4.2711 4.2711 2.3563 0 4.268-1.9148 4.268-4.2711 0-2.3594-1.9118-4.2711-4.268-4.2711-2.3594 0-4.2711 1.9118-4.2711 4.2711"/>
   <path d="m402.74 463.63c0 3.9292 3.18 7.1154 7.1123 7.1154 3.9292 0 7.1154-3.1862 7.1154-7.1154 0-3.9261-3.1862-7.1154-7.1154-7.1154-3.9323 0-7.1123 3.1894-7.1123 7.1154"/>
   <path d="m415 463.63c0 4.4514 3.6121 8.0635 8.0666 8.0635 4.4483 0 8.0604-3.6121 8.0604-8.0635 0-4.4545-3.6121-8.0636-8.0604-8.0636-4.4545 0-8.0666 3.609-8.0666 8.0636"/>
   <path d="m390.43 478.58c0 3.407 2.7635 6.1673 6.1673 6.1673 3.407 0 6.1642-2.7604 6.1642-6.1673 0-3.4038-2.7573-6.1673-6.1642-6.1673-3.4038 0-6.1673 2.7635-6.1673 6.1673"/>
   <path d="m401.79 478.58c0 4.4514 3.6121 8.0635 8.0666 8.0635 4.4514 0 8.0604-3.6121 8.0604-8.0635 0-4.4514-3.609-8.0636-8.0604-8.0636-4.4545 0-8.0666 3.6121-8.0666 8.0636"/>
   <path d="m414.06 493.41c0 4.9768 4.0318 9.0148 9.0148 9.0148 4.9737 0 9.0085-4.038 9.0085-9.0148 0-4.9737-4.0349-9.0116-9.0085-9.0116-4.983 0-9.0148 4.038-9.0148 9.0116"/>
   <path d="m421.17 404.13c0 1.0476 0.85174 1.8962 1.8993 1.8962 1.0476 0 1.8962-0.84863 1.8962-1.8962 0-1.0476-0.84864-1.8962-1.8962-1.8962-1.0476 0-1.8993 0.84864-1.8993 1.8962"/>
   <path d="m395.42 418.94c0 0.65279 0.53155 1.1812 1.1812 1.1812 0.6528 0 1.1844-0.52845 1.1844-1.1812 0-0.64968-0.53155-1.1812-1.1844-1.1812-0.64969 0-1.1812 0.53157-1.1812 1.1812"/>
   <path d="m380.03 493.37c0-1.5729 1.2745-2.8474 2.8474-2.8474 1.5698 0 2.8443 1.2745 2.8443 2.8474s-1.2745 2.8474-2.8443 2.8474c-1.5729 0-2.8474-1.2745-2.8474-2.8474"/>
   <path d="m390.43 493.41c0-3.407 2.7635-6.1673 6.1704-6.1673 3.4038 0 6.1611 2.7604 6.1611 6.1673 0 3.4038-2.7573 6.1704-6.1611 6.1704-3.407 0-6.1704-2.7666-6.1704-6.1704"/>
   <path d="m401.83 493.41c0-4.4514 3.609-8.0636 8.0636-8.0636 4.4514 0 8.0604 3.6121 8.0604 8.0636 0 4.4545-3.609 8.0666-8.0604 8.0666-4.4545 0-8.0636-3.6121-8.0636-8.0666"/>
   <path d="m447.26 478.58c0 6.0243-4.8835 10.911-10.914 10.911-6.0212 0-10.902-4.8866-10.902-10.911 0-6.0244 4.8804-10.911 10.902-10.911 6.0306 0 10.914 4.8866 10.914 10.911"/>
   <path d="m414.06 478.58c0 4.9768 4.0318 9.0116 9.0148 9.0116 4.9737 0 9.0085-4.0349 9.0085-9.0116 0-4.9768-4.0349-9.0116-9.0085-9.0116-4.983 0-9.0148 4.0349-9.0148 9.0116"/>
   <path d="m435.18 390.29c0 0.65279 0.53156 1.1812 1.1844 1.1812 0.64657 0 1.1781-0.52845 1.1781-1.1812 0-0.6528-0.53155-1.1812-1.1781-1.1812-0.6528 0-1.1844 0.52845-1.1844 1.1812"/>
   <path d="m439.2 567.89c0-1.5729-1.2776-2.8505-2.8536-2.8505-1.5667 0-2.8412 1.2776-2.8412 2.8505 0 1.5698 1.2745 2.8443 2.8412 2.8443 1.4424 0 2.8536-1.1533 2.8536-2.8443"/>
   <path d="m441.57 553.02c0-2.8816-2.3345-5.2161-5.2161-5.2161s-5.2192 2.3345-5.2192 5.2161c0 2.8816 2.3376 5.2192 5.2192 5.2192s5.2161-2.3376 5.2161-5.2192"/>
   <path d="m443.46 537.91c0-3.9323-3.1831-7.1186-7.1186-7.1186-3.9261 0-7.1092 3.1862-7.1092 7.1186 0 3.9292 3.1832 7.1154 7.1092 7.1154 3.9354 0 7.1186-3.1862 7.1186-7.1154"/>
   <path d="m446.31 523.13c0-5.5021-4.4608-9.9629-9.966-9.9629-5.499 0-9.9566 4.4608-9.9566 9.9629s4.4576 9.9598 9.9566 9.9598c5.5052 0 9.966-4.4576 9.966-9.9598"/>
   <path d="m447.26 493.41c0-6.0243-4.8835-10.911-10.914-10.911-6.0212 0-10.902 4.8866-10.902 10.911 0 6.0275 4.8804 10.911 10.902 10.911 6.0306 0 10.914-4.8835 10.914-10.911"/>
   <path d="m438.72 582.75c0-1.3118-1.0631-2.3749-2.3749-2.3749-1.3056 0-2.3687 1.0631-2.3687 2.3749 0 1.3056 1.0631 2.3687 2.3687 2.3687 1.3118 0 2.3749-1.0631 2.3749-2.3687"/>
   <path d="m407.95 567.89c0-1.0507 0.84863-1.8993 1.8962-1.8993 1.0476 0 1.8962 0.84863 1.8962 1.8993 0 1.0476-0.84863 1.8962-1.8962 1.8962-1.0476 0-1.8962-0.84864-1.8962-1.8962"/>
   <path d="m394.7 553.02c0-1.0476 0.85174-1.8993 1.8993-1.8993 1.0476 0 1.8993 0.85174 1.8993 1.8993 0 1.0476-0.85174 1.8962-1.8993 1.8962-1.0476 0-1.8993-0.84864-1.8993-1.8962"/>
   <path d="m380.98 537.94c0-1.0476 0.85174-1.8993 1.8993-1.8993 1.0476 0 1.8962 0.85174 1.8962 1.8993 0 1.0476-0.84863 1.8962-1.8962 1.8962-1.0476 0-1.8993-0.84862-1.8993-1.8962"/>
   <path d="m420.7 567.89c0-1.3118 1.0631-2.3749 2.3718-2.3749 1.3087 0 2.3718 1.0631 2.3718 2.3749 0 1.3056-1.0631 2.3718-2.3718 2.3718-1.3087 0-2.3718-1.0662-2.3718-2.3718"/>
   <path d="m407.01 553.01c0-1.5698 1.2745-2.8474 2.8474-2.8474 1.5698 0 2.8412 1.2776 2.8412 2.8474 0 1.5729-1.2714 2.8474-2.8412 2.8474-1.5729 0-2.8474-1.2745-2.8474-2.8474"/>
   <path d="m418.8 553.02c0-2.3563 1.9118-4.2711 4.2711-4.2711 2.3594 0 4.2649 1.9148 4.2649 4.2711 0 2.3563-1.9055 4.268-4.2649 4.268-2.3594 0-4.2711-1.9118-4.2711-4.268"/>
   <path d="m393.28 537.94c0-1.834 1.489-3.323 3.3199-3.323 1.834 0 3.3199 1.489 3.3199 3.323s-1.4859 3.3199-3.3199 3.3199c-1.8309 0-3.3199-1.4859-3.3199-3.3199"/>
   <path d="m380.42 523.13c0-1.3087 1.0662-2.3749 2.3749-2.3749 1.3087 0 2.3687 1.0662 2.3687 2.3749 0 1.3087-1.06 2.3718-2.3687 2.3718-1.3087 0-2.3749-1.0631-2.3749-2.3718"/>
   <path d="m379.95 508.29c0-1.5729 1.2745-2.8474 2.8474-2.8474 1.5729 0 2.8443 1.2745 2.8443 2.8474 0 1.5729-1.2714 2.8474-2.8443 2.8474-1.5729 0-2.8474-1.2745-2.8474-2.8474"/>
   <path d="m404.63 537.94c0-2.8816 2.3345-5.2192 5.2192-5.2192 2.8785 0 5.2161 2.3376 5.2161 5.2192 0 2.8816-2.3376 5.2192-5.2161 5.2192-2.8847 0-5.2192-2.3376-5.2192-5.2192"/>
   <path d="m416.9 537.94c0-3.407 2.7542-6.1673 6.1673-6.1673 3.4007 0 6.1642 2.7604 6.1642 6.1673 0 3.4038-2.7635 6.1673-6.1642 6.1673-3.4132 0-6.1673-2.7635-6.1673-6.1673"/>
   <path d="m392.33 523.2c0-2.3563 1.9118-4.2711 4.2711-4.2711 2.3563 0 4.268 1.9148 4.268 4.2711 0 2.3594-1.9118 4.2711-4.268 4.2711-2.3594 0-4.2711-1.9118-4.2711-4.2711"/>
   <path d="m402.74 523.2c0-3.9292 3.18-7.1154 7.1123-7.1154 3.9292 0 7.1154 3.1862 7.1154 7.1154s-3.1862 7.1154-7.1154 7.1154c-3.9323 0-7.1123-3.1862-7.1123-7.1154"/>
   <path d="m415 523.2c0-4.4514 3.6121-8.0604 8.0666-8.0604 4.4483 0 8.0604 3.609 8.0604 8.0604 0 4.4545-3.6121 8.0636-8.0604 8.0636-4.4545 0-8.0666-3.609-8.0666-8.0636"/>
   <path d="m390.43 508.25c0-3.407 2.7635-6.1673 6.1673-6.1673 3.407 0 6.1642 2.7604 6.1642 6.1673 0 3.4038-2.7573 6.1673-6.1642 6.1673-3.4038 0-6.1673-2.7635-6.1673-6.1673"/>
   <path d="m401.79 508.25c0-4.4545 3.6121-8.0636 8.0666-8.0636 4.4514 0 8.0604 3.609 8.0604 8.0636 0 4.4514-3.609 8.0604-8.0604 8.0604-4.4545 0-8.0666-3.609-8.0666-8.0604"/>
   <path d="m414.06 493.41c0-4.9736 4.0318-9.0148 9.0148-9.0148 4.9737 0 9.0085 4.0411 9.0085 9.0148 0 4.9768-4.0349 9.0148-9.0085 9.0148-4.983 0-9.0148-4.038-9.0148-9.0148"/>
   <path d="m421.17 582.7c0-1.0476 0.85174-1.8962 1.8993-1.8962 1.0476 0 1.8962 0.84863 1.8962 1.8962 0 1.0445-0.84864 1.8962-1.8962 1.8962-1.0476 0-1.8993-0.85174-1.8993-1.8962"/>
   <path d="m395.42 567.89c0-0.65279 0.53155-1.1844 1.1812-1.1844 0.6528 0 1.1844 0.53156 1.1844 1.1844 0 0.64968-0.53155 1.1781-1.1844 1.1781-0.64969 0-1.1812-0.52845-1.1812-1.1781"/>
   <path d="m380.03 493.46c0 1.5698 1.2745 2.8474 2.8474 2.8474 1.5698 0 2.8443-1.2776 2.8443-2.8474 0-1.5729-1.2745-2.8474-2.8443-2.8474-1.5729 0-2.8474 1.2745-2.8474 2.8474"/>
   <path d="m390.43 493.42c0 3.407 2.7635 6.1673 6.1704 6.1673 3.4038 0 6.1611-2.7604 6.1611-6.1673 0-3.4038-2.7573-6.1673-6.1611-6.1673-3.407 0-6.1704 2.7635-6.1704 6.1673"/>
   <path d="m401.83 493.42c0 4.4514 3.609 8.0636 8.0636 8.0636 4.4514 0 8.0604-3.6121 8.0604-8.0636 0-4.4545-3.609-8.0666-8.0604-8.0666-4.4545 0-8.0636 3.6121-8.0636 8.0666"/>
   <path d="m447.26 508.25c0-6.0275-4.8835-10.911-10.914-10.911-6.0212 0-10.902 4.8835-10.902 10.911 0 6.0243 4.8804 10.911 10.902 10.911 6.0306 0 10.914-4.8866 10.914-10.911"/>
   <path d="m414.06 508.25c0-4.9768 4.0318-9.0148 9.0148-9.0148 4.9737 0 9.0085 4.038 9.0085 9.0148 0 4.9736-4.0349 9.0116-9.0085 9.0116-4.983 0-9.0148-4.038-9.0148-9.0116"/>
   <path d="m435.18 596.54c0-0.6528 0.53156-1.1812 1.1844-1.1812 0.64657 0 1.1781 0.52845 1.1781 1.1812 0 0.64967-0.53155 1.1812-1.1781 1.1812-0.6528 0-1.1844-0.53156-1.1844-1.1812"/>
   <path d="m433.5 567.89c0-1.5729 1.2745-2.8505 2.8505-2.8505 1.5698 0 2.8412 1.2776 2.8412 2.8505 0 1.5698-1.2714 2.8443-2.8412 2.8443-1.4424 0-2.8505-1.1533-2.8505-2.8443"/>
   <path d="m431.13 553.02c0-2.8816 2.3345-5.2161 5.2192-5.2161 2.8785 0 5.2161 2.3345 5.2161 5.2161 0 2.8816-2.3376 5.2192-5.2161 5.2192-2.8847 0-5.2192-2.3376-5.2192-5.2192"/>
   <path d="m429.24 537.91c0-3.9323 3.1831-7.1186 7.1186-7.1186 3.9261 0 7.1092 3.1862 7.1092 7.1186 0 3.9292-3.1831 7.1154-7.1092 7.1154-3.9354 0-7.1186-3.1862-7.1186-7.1154"/>
   <path d="m426.39 523.13c0-5.5021 4.4608-9.9629 9.966-9.9629 5.499 0 9.9566 4.4608 9.9566 9.9629s-4.4576 9.9598-9.9566 9.9598c-5.5052 0-9.966-4.4576-9.966-9.9598"/>
   <path d="m425.44 493.41c0-6.0243 4.8835-10.911 10.914-10.911 6.0212 0 10.902 4.8866 10.902 10.911 0 6.0275-4.8804 10.911-10.902 10.911-6.0306 0-10.914-4.8835-10.914-10.911"/>
   <path d="m433.98 582.75c0-1.3118 1.0631-2.3749 2.3749-2.3749 1.3056 0 2.3687 1.0631 2.3687 2.3749 0 1.3056-1.0631 2.3687-2.3687 2.3687-1.3118 0-2.3749-1.0631-2.3749-2.3687"/>
   <path d="m464.74 567.89c0-1.0507-0.84864-1.8993-1.8962-1.8993-1.0476 0-1.8993 0.84863-1.8993 1.8993 0 1.0476 0.85174 1.8962 1.8993 1.8962 1.0476 0 1.8962-0.84864 1.8962-1.8962"/>
   <path d="m478 553.02c0-1.0476-0.85174-1.8993-1.8993-1.8993s-1.8993 0.85174-1.8993 1.8993c0 1.0476 0.85174 1.8962 1.8993 1.8962s1.8993-0.84864 1.8993-1.8962"/>
   <path d="m491.72 537.94c0-1.0476-0.85174-1.8993-1.8993-1.8993-1.0476 0-1.8962 0.85174-1.8962 1.8993 0 1.0476 0.84863 1.8962 1.8962 1.8962 1.0476 0 1.8993-0.84862 1.8993-1.8962"/>
   <path d="m452 567.89c0-1.3118-1.0631-2.3749-2.3718-2.3749-1.3087 0-2.3718 1.0631-2.3718 2.3749 0 1.3056 1.0631 2.3718 2.3718 2.3718 1.3087 0 2.3718-1.0662 2.3718-2.3718"/>
   <path d="m465.69 553.01c0-1.5698-1.2745-2.8474-2.8474-2.8474-1.5698 0-2.8443 1.2776-2.8443 2.8474 0 1.5729 1.2745 2.8474 2.8443 2.8474 1.5729 0 2.8474-1.2745 2.8474-2.8474"/>
   <path d="m453.9 553.02c0-2.3563-1.9118-4.2711-4.2711-4.2711-2.3594 0-4.2649 1.9148-4.2649 4.2711 0 2.3563 1.9055 4.268 4.2649 4.268 2.3594 0 4.2711-1.9118 4.2711-4.268"/>
   <path d="m479.42 537.94c0-1.834-1.489-3.323-3.323-3.323-1.8309 0-3.3168 1.489-3.3168 3.323s1.4859 3.3199 3.3168 3.3199c1.834 0 3.323-1.4859 3.323-3.3199"/>
   <path d="m492.28 523.13c0-1.3087-1.0631-2.3749-2.3718-2.3749-1.3118 0-2.3718 1.0662-2.3718 2.3749 0 1.3087 1.06 2.3718 2.3718 2.3718 1.3087 0 2.3718-1.0631 2.3718-2.3718"/>
   <path d="m492.75 508.29c0-1.5729-1.2745-2.8474-2.8474-2.8474-1.5698 0-2.8443 1.2745-2.8443 2.8474 0 1.5729 1.2745 2.8474 2.8443 2.8474 1.5729 0 2.8474-1.2745 2.8474-2.8474"/>
   <path d="m468.06 537.94c0-2.8816-2.3345-5.2192-5.2161-5.2192s-5.2192 2.3376-5.2192 5.2192c0 2.8816 2.3376 5.2192 5.2192 5.2192s5.2161-2.3376 5.2161-5.2192"/>
   <path d="m455.79 537.94c0-3.407-2.7573-6.1673-6.1673-6.1673-3.4038 0-6.1642 2.7604-6.1642 6.1673 0 3.4038 2.7604 6.1673 6.1642 6.1673 3.4101 0 6.1673-2.7635 6.1673-6.1673"/>
   <path d="m480.37 523.2c0-2.3563-1.9149-4.2711-4.2711-4.2711s-4.268 1.9148-4.268 4.2711c0 2.3594 1.9118 4.2711 4.268 4.2711s4.2711-1.9118 4.2711-4.2711"/>
   <path d="m469.96 523.2c0-3.9292-3.18-7.1154-7.1123-7.1154-3.9292 0-7.1154 3.1862-7.1154 7.1154s3.1862 7.1154 7.1154 7.1154c3.9323 0 7.1123-3.1862 7.1123-7.1154"/>
   <path d="m457.69 523.2c0-4.4514-3.609-8.0604-8.0636-8.0604-4.4514 0-8.0635 3.609-8.0635 8.0604 0 4.4545 3.6121 8.0636 8.0635 8.0636 4.4545 0 8.0636-3.609 8.0636-8.0636"/>
   <path d="m482.26 508.25c0-3.407-2.7604-6.1673-6.1673-6.1673-3.4038 0-6.1642 2.7604-6.1642 6.1673 0 3.4038 2.7604 6.1673 6.1642 6.1673 3.407 0 6.1673-2.7635 6.1673-6.1673"/>
   <path d="m470.91 508.25c0-4.4545-3.609-8.0636-8.0636-8.0636-4.4545 0-8.0635 3.609-8.0635 8.0636 0 4.4514 3.609 8.0604 8.0635 8.0604 4.4545 0 8.0636-3.609 8.0636-8.0604"/>
   <path d="m458.64 493.41c0-4.9736-4.0349-9.0148-9.0148-9.0148-4.9768 0-9.0085 4.0411-9.0085 9.0148 0 4.9768 4.0318 9.0148 9.0085 9.0148 4.9799 0 9.0148-4.038 9.0148-9.0148"/>
   <path d="m451.53 582.7c0-1.0476-0.85175-1.8962-1.8993-1.8962-1.0476 0-1.8962 0.84863-1.8962 1.8962 0 1.0445 0.84862 1.8962 1.8962 1.8962 1.0476 0 1.8993-0.85174 1.8993-1.8962"/>
   <path d="m477.28 567.89c0-0.65279-0.53156-1.1844-1.1844-1.1844-0.64968 0-1.1812 0.53156-1.1812 1.1844 0 0.64968 0.53157 1.1781 1.1812 1.1781 0.65279 0 1.1844-0.52845 1.1844-1.1781"/>
   <path d="m492.67 493.46c0 1.5698-1.2745 2.8474-2.8474 2.8474-1.5698 0-2.8443-1.2776-2.8443-2.8474 0-1.5729 1.2745-2.8474 2.8443-2.8474 1.5729 0 2.8474 1.2745 2.8474 2.8474"/>
   <path d="m482.26 493.42c0 3.407-2.7604 6.1673-6.1704 6.1673-3.4007 0-6.1611-2.7604-6.1611-6.1673 0-3.4038 2.7604-6.1673 6.1611-6.1673 3.4101 0 6.1704 2.7635 6.1704 6.1673"/>
   <path d="m470.87 493.42c0 4.4514-3.609 8.0636-8.0636 8.0636-4.4514 0-8.0635-3.6121-8.0635-8.0636 0-4.4545 3.6121-8.0666 8.0635-8.0666 4.4545 0 8.0636 3.6121 8.0636 8.0666"/>
   <path d="m425.44 508.25c0-6.0275 4.8835-10.911 10.914-10.911 6.0212 0 10.902 4.8835 10.902 10.911 0 6.0243-4.8804 10.911-10.902 10.911-6.0306 0-10.914-4.8866-10.914-10.911"/>
   <path d="m458.64 508.25c0-4.9768-4.0349-9.0148-9.0148-9.0148-4.9768 0-9.0085 4.038-9.0085 9.0148 0 4.9736 4.0318 9.0116 9.0085 9.0116 4.9799 0 9.0148-4.038 9.0148-9.0116"/>
   <path d="m437.52 596.54c0-0.6528-0.53157-1.1812-1.1844-1.1812-0.64658 0-1.1781 0.52845-1.1781 1.1812 0 0.64967 0.53156 1.1812 1.1781 1.1812 0.65278 0 1.1844-0.53156 1.1844-1.1812"/>
  </g>
  <path d="m415.9 493.41c0-11.29 9.1546-20.445 20.451-20.445 11.29 0 20.442 9.1546 20.442 20.445 0 11.293-9.1515 20.448-20.442 20.448-11.296 0-20.451-9.1546-20.451-20.448m-71.848 53.179v-23.258h-32.842l32.842-42.267v-19.015h-63.955v23.255h30.327l-32.214 42.27v19.015h65.842zm-75.248-77.626c-5.813-5.813-11.47-7.8553-19.798-7.8553-8.8003 0-16.186 4.0846-19.957 7.8553v-6.9134h-25.142v84.54h25.77v-50.598c0-9.5867 6.9134-11.629 10.37-11.629 4.4017 0 6.758 1.8869 9.2728 4.3986l19.484-19.798z" fill="#f90"/>
 </g>
</svg>
