<svg xmlns="http://www.w3.org/2000/svg" width="254" height="80" viewBox="0 0 254 80"><path fill="#EF851E" d="M178.4 77.4c-.7 0-1.4-.2-2-.5-1.2-.7-1.9-2-1.9-3.3v-15c-8.9-1.8-15.5-9.7-15.5-19.1v-18.9c0-10.7 8.7-19.4 19.4-19.4h54.3c10.7 0 19.4 8.7 19.4 19.4v18.8c0 10.7-8.7 19.4-19.4 19.4h-19.7l-32.7 18c-.6.4-1.2.6-1.9.6zm0-68.4c-6.4 0-11.6 5.2-11.6 11.6v18.8c0 6.4 5.2 11.7 11.7 11.7 2.1 0 3.9 1.7 3.9 3.9v11.9l27.8-15.3c.6-.3 1.2-.5 1.9-.5h20.7c6.4 0 11.6-5.2 11.6-11.6v-18.9c0-6.4-5.2-11.6-11.6-11.6h-54.4z"/><g fill="#152453"><path d="M101.1 31.9c-2.2 0-3.8-.6-4.9-1.9-1.1-1.3-1.7-2.8-1.7-4.6v-24.6h5.7v24.2c0 1.4.7 2 2 2h2.2v4.8h-3.3zM113.3 22.3c0 1.5.4 2.7 1.3 3.7.9.9 2.1 1.4 3.6 1.4 1.2 0 2.2-.2 2.9-.5.7-.3 1.5-.9 2.2-1.6l3.4 3.4c-1.3 1.2-2.5 2.2-3.8 2.7-1.3.6-2.9.9-4.8.9-1.5 0-2.8-.2-4-.6-1.2-.4-2.3-1-3.3-1.9-1-.9-1.7-2.1-2.3-3.6-.6-1.5-.8-3.4-.8-5.6 0-3.7.9-6.5 2.7-8.5 1.8-2 4.2-3 7.2-3 3.1 0 5.5 1 7.3 3 1.8 2 2.6 4.6 2.6 7.8v2.5h-14.2zm8.5-5.2c-.1-.4-.2-.7-.4-1.2-.3-.7-.8-1.3-1.4-1.7-.6-.4-1.4-.6-2.4-.6-.9 0-1.7.2-2.3.6-.7.4-1.1 1-1.5 1.7-.2.4-.3.8-.4 1.2-.1.4-.1.8-.2 1.3h8.6c.1-.5.1-.9 0-1.3zM144 15.3c-.5-.5-.9-.8-1.4-1-.5-.2-1-.3-1.6-.3-1 0-1.8.4-2.5 1.1-.7.7-1.1 1.8-1.1 3.1v13.7h-5.7v-22.7h5.5v2.2c.6-.7 1.4-1.3 2.4-1.7 1-.5 2.1-.7 3.3-.7 1.1 0 2.1.2 3 .5.8.3 1.6.9 2.4 1.7l-4.3 4.1zM16.6 30.2c-1.8 1.3-4.1 1.9-6.9 1.9-2.1 0-3.9-.2-5.4-.7-1.6-.4-3-1.2-4.3-2.6l3.7-3.7c.8.8 1.8 1.4 2.8 1.7 1 .3 2.1.4 3.2.4s2-.2 2.8-.6c.8-.4 1.2-1 1.2-1.8 0-.6-.2-1.1-.6-1.4-.4-.3-1-.6-1.8-.7l-1.7-.2-1.8-.2c-2.1-.2-3.8-.8-4.9-1.8-1.1-1-1.7-2.5-1.7-4.5 0-2.3.9-4 2.5-5.3 1.7-1.3 3.8-1.9 6.2-1.9 1.9 0 3.6.2 5 .6 1.4.4 2.7 1.1 3.7 2l-3.5 3.5c-.6-.6-1.4-.9-2.3-1.2-.9-.2-1.9-.3-3-.3s-1.9.2-2.4.6c-.5.4-.8.9-.8 1.5 0 .5.2.9.5 1.3s1 .6 1.9.7l1.8.2 1.8.2c2.2.2 3.9.9 5.1 2 1.1 1.1 1.7 2.7 1.7 4.6-.1 2.6-1 4.5-2.8 5.7zM33.1 32.1c-1.2 0-2.5-.2-3.6-.6-1.2-.4-2.3-1-3.2-1.9-1-.9-1.8-2.1-2.4-3.6-.6-1.5-.9-3.4-.9-5.6 0-2.2.3-4 .9-5.6.6-1.5 1.4-2.7 2.4-3.6 1-.9 2.1-1.5 3.2-1.9 1.2-.4 2.4-.6 3.6-.6 1.6 0 3 .2 4.2.7 1.2.5 2.3 1.3 3.3 2.3l-3.8 3.8c-.6-.6-1.2-1.1-1.7-1.4-.6-.3-1.2-.4-1.9-.4-1.3 0-2.4.5-3.2 1.5-.8 1-1.3 2.7-1.3 5s.4 4 1.3 5.1c.8 1 1.9 1.5 3.2 1.5.7 0 1.4-.1 1.9-.4.6-.3 1.1-.7 1.7-1.4l3.8 3.8c-2 2.3-4.5 3.3-7.5 3.3zM58 31.9v-13.9c0-1.4-.4-2.4-1.1-3.1-.7-.6-1.6-1-2.6-1s-1.9.3-2.6 1c-.7.7-1.1 1.7-1.1 3v13.9h-5.6v-31h5.7v10.4c1.5-1.6 3.4-2.4 5.4-2.4 2.4 0 4.3.8 5.6 2.3 1.3 1.5 2 3.5 2 6v14.7h-5.7zM82.8 31.9v-2.1c-.7.8-1.6 1.3-2.6 1.7-1 .4-2 .6-3.1.6-2.2 0-4-.7-5.4-2-.9-.9-1.5-1.8-1.8-2.9-.3-1-.5-2.2-.5-3.6v-14.4h5.7v13.7c0 1.4.4 2.5 1.1 3.1.7.7 1.6 1 2.6 1s1.9-.3 2.7-1c.7-.7 1.1-1.7 1.1-3.1v-13.7h5.7v22.7h-5.5zm-11.1-26.5v-5.4h4.8v5.4h-4.8zm9.6 0v-5.4h4.8v5.4h-4.8z"/></g><g fill="#EF851E"><path d="M19.9 69.4c-.4 1.4-1 2.5-2 3.6-.8.8-1.8 1.5-2.9 2-1.2.5-2.5.8-4.1.8-1.6 0-2.9-.3-4.1-.8-1.2-.5-2.1-1.2-2.9-2-1-1-1.7-2.2-2-3.6-.4-1.4-.5-3.1-.5-5.3 0-2.2.2-3.9.5-5.3.4-1.4 1-2.5 2-3.6.8-.8 1.8-1.5 2.9-2 1.2-.5 2.5-.8 4.1-.8 1.6 0 2.9.3 4.1.8 1.2.5 2.2 1.2 2.9 2 1 1 1.7 2.2 2 3.6.4 1.4.5 3.1.5 5.3.1 2.1-.1 3.9-.5 5.3zm-5.3-8.7c-.2-.9-.5-1.6-1.1-2.1-.7-.7-1.6-1-2.7-1s-1.9.3-2.6 1c-.5.5-.9 1.2-1 2.1-.2.9-.3 2-.3 3.4s.1 2.5.3 3.4c.2.9.5 1.6 1 2.1.7.7 1.5 1 2.6 1s2-.3 2.7-1c.6-.6.9-1.3 1.1-2.1.2-.9.2-2 .2-3.4s-.1-2.6-.2-3.4zM39.1 75.4v-13.7c0-1.4-.4-2.5-1.1-3.1-.7-.7-1.6-1-2.6-1s-1.9.3-2.7 1c-.7.7-1.1 1.7-1.1 3.1v13.7h-5.7v-22.7h5.5v2.1c.7-.8 1.6-1.3 2.6-1.7 1-.4 2-.6 3.1-.6 2.2 0 4 .7 5.4 2 .9.9 1.5 1.8 1.8 2.9.3 1 .5 2.2.5 3.6v14.5h-5.7zM57.3 75.4c-2.2 0-3.8-.6-4.9-1.9-1.1-1.3-1.7-2.8-1.7-4.6v-24.5h5.7v24.2c0 1.4.7 2 2 2h2.2v4.8h-3.3zM64.9 48.8v-4.6h5.8v4.6h-5.8zm.1 26.6v-22.7h5.7v22.7h-5.7zM90.2 75.4v-13.7c0-1.4-.4-2.5-1.1-3.1-.7-.7-1.6-1-2.6-1s-1.9.3-2.7 1c-.7.7-1.1 1.7-1.1 3.1v13.7h-5.7v-22.7h5.5v2.1c.7-.8 1.6-1.3 2.6-1.7 1-.4 2-.6 3.1-.6 2.2 0 4 .7 5.4 2 .9.9 1.5 1.8 1.8 2.9.3 1 .5 2.2.5 3.6v14.5h-5.7zM106.4 65.8c0 1.5.4 2.7 1.3 3.7.9.9 2.1 1.4 3.6 1.4 1.2 0 2.2-.2 2.9-.5.7-.3 1.5-.9 2.2-1.6l3.4 3.4c-1.2 1.2-2.5 2.2-3.8 2.7-1.3.6-2.9.8-4.8.8-1.5 0-2.8-.2-4-.6-1.2-.4-2.3-1-3.3-1.9-1-.9-1.7-2.1-2.3-3.6-.6-1.5-.8-3.4-.8-5.6 0-3.7.9-6.5 2.7-8.5 1.8-2 4.2-3 7.2-3 3.1 0 5.5 1 7.3 3 1.8 2 2.6 4.6 2.6 7.8v2.5h-14.2zm8.5-5.1c-.1-.4-.2-.7-.4-1.2-.3-.7-.8-1.3-1.4-1.7-.6-.4-1.4-.6-2.4-.6-.9 0-1.7.2-2.3.6-.7.4-1.1 1-1.5 1.7-.2.4-.3.8-.4 1.2-.1.4-.1.8-.2 1.3h8.6c.1-.5.1-1 0-1.3z"/></g></svg>