<?xml version="1.0" encoding="UTF-8"?>
<!-- Created with Inkscape (http://www.inkscape.org/) -->
<svg width="77.335mm" height="78.714mm" version="1.1" viewBox="0 0 77.335 78.714" xmlns="http://www.w3.org/2000/svg" xmlns:cc="http://creativecommons.org/ns#" xmlns:dc="http://purl.org/dc/elements/1.1/" xmlns:rdf="http://www.w3.org/1999/02/22-rdf-syntax-ns#">
 <metadata>
  <rdf:RDF>
   <cc:Work rdf:about="">
    <dc:format>image/svg+xml</dc:format>
    <dc:type rdf:resource="http://purl.org/dc/dcmitype/StillImage"/>
    <dc:title/>
   </cc:Work>
  </rdf:RDF>
 </metadata>
 <g transform="translate(-65.185 -41.161)" fill="#fff">
  <g transform="matrix(.16848 0 0 .16848 79.562 47.368)">
   <g transform="translate(-63.947,-88.179)" fill="#fff">
    <path class="st1" d="m283.1 483.6c-5.8-2.1-12.8-8.1-15.7-13.7-3.6-6.9-3.3-17.7 0.7-26.3 3.1-6.4 3.1-6.6 1.1-8.1-1.1-0.8-14.4-8.2-29.4-16.3s-28.1-15.2-29-15.7c-1.2-0.7-3.2 0-6.8 2.3-11.7 7.4-23.9 6.6-33.5-2.3-6.9-6.4-8.9-10.9-8.9-20.1 0-8.9 1.8-13.5 7.5-19.2 7.7-7.7 18-10.3 27.9-7 5.4 1.8 5.5 1.8 8.9-0.8 4-3 36.1-32.3 51.6-47l10.7-10.2-3.2-6.7c-6.5-13.5-3.2-28.5 8.2-37.5 6.2-4.9 10.8-6.4 19.7-6.4 20.8 0 35.3 21.8 27.5 41.3-2.1 5.4-2.1 5.5-0.1 8.8 1.7 2.9 30.6 37.8 45.9 55.6 2.7 3.1 5.7 5.6 6.7 5.6s4.4-1 7.6-2.2c14.9-5.9 30.6 0.7 36.8 15.5 4 9.5 0.5 22.3-8 30-6 5.4-10.4 7.1-18.4 7.1-5.6 0-7.7-0.6-13.6-3.8-4.4-2.4-7.8-3.6-9.2-3.2-2.4 0.6-39.3 25.9-47.5 32.5-5 4.1-5.4 5.6-2.8 11.7 2.5 6 2.2 15.4-0.6 21.3-3.1 6.5-10.8 13-17.5 15-6.8 1.9-10.9 1.9-16.6-0.2zm1.7-110.2v-57l-3.2-4.4c-1.8-2.4-3.5-4.4-3.8-4.4-1.3 0-65.9 58.7-65.9 59.9 0 0.3 1 3.3 2.2 6.5 1.2 3.3 2.1 8 2 10.7s-0.1 5.7-0.1 6.7c0.1 2.3 21.7 16.1 54.1 34.8 8.9 5.2 12 6.5 13.1 5.6 1.3-1.1 1.6-12.2 1.6-58.4zm27.4 50.4c42.8-26.9 50.8-32.3 51.3-34.3 0.3-1.2 0.7-5.9 0.8-10.6l0.3-8.4-21.8-25.9c-23.4-27.7-32-37.1-34-37.1-0.7 0-4.2 2-7.8 4.4l-6.6 4.4 0.3 56.9c0.3 51 0.7 59.6 2.6 59.6 0.2 0.1 7-4 14.9-9z" fill="#fff"/>
   </g>
  </g>
  <g transform="matrix(.080315 0 0 .080315 69.614 45.861)">
   <path d="m438.09 273.32h-39.596c4.036 11.05 6.241 22.975 6.241 35.404v149.65c0 5.182-0.902 10.156-2.543 14.782h65.461c24.453 0 44.346-19.894 44.346-44.346v-81.581c1e-3 -40.753-33.155-73.909-73.909-73.909z" fill="#fff"/>
   <path d="m107.26 308.72c0-12.43 2.205-24.354 6.241-35.404h-39.596c-40.754 0-73.91 33.156-73.91 73.91v81.581c0 24.452 19.893 44.346 44.346 44.346h65.462c-1.641-4.628-2.543-9.601-2.543-14.783z" fill="#fff"/>
   <path d="m301.26 234.82h-90.522c-40.754 0-73.91 33.156-73.91 73.91v149.65c0 8.163 6.618 14.782 14.782 14.782h208.78c8.164 0 14.782-6.618 14.782-14.782v-149.65c0-40.754-33.156-73.91-73.91-73.91z" fill="#fff"/>
   <path d="m256 38.84c-49.012 0-88.886 39.874-88.886 88.887 0 33.245 18.349 62.28 45.447 77.524 12.853 7.23 27.671 11.362 43.439 11.362s30.586-4.132 43.439-11.362c27.099-15.244 45.447-44.28 45.447-77.524 0-49.012-39.874-88.887-88.886-88.887z" fill="#fff"/>
   <path d="m99.918 121.69c-36.655 0-66.475 29.82-66.475 66.475s29.82 66.475 66.475 66.475c9.298 0 18.152-1.926 26.195-5.388 13.906-5.987 25.372-16.585 32.467-29.86 4.98-9.317 7.813-19.946 7.813-31.227 0-36.654-29.82-66.475-66.475-66.475z" fill="#fff"/>
   <path d="m412.08 121.69c-36.655 0-66.475 29.82-66.475 66.475 0 11.282 2.833 21.911 7.813 31.227 7.095 13.276 18.561 23.874 32.467 29.86 8.043 3.462 16.897 5.388 26.195 5.388 36.655 0 66.475-29.82 66.475-66.475s-29.82-66.475-66.475-66.475z" fill="#fff"/>
  </g>
 </g>
</svg>
