<?xml version="1.0" encoding="UTF-8"?>
<!-- Created with Inkscape (http://www.inkscape.org/) -->
<svg width="77.335mm" height="78.714mm" version="1.1" viewBox="0 0 77.335 78.714" xmlns="http://www.w3.org/2000/svg" xmlns:cc="http://creativecommons.org/ns#" xmlns:dc="http://purl.org/dc/elements/1.1/" xmlns:rdf="http://www.w3.org/1999/02/22-rdf-syntax-ns#">
 <metadata>
  <rdf:RDF>
   <cc:Work rdf:about="">
    <dc:format>image/svg+xml</dc:format>
    <dc:type rdf:resource="http://purl.org/dc/dcmitype/StillImage"/>
    <dc:title/>
   </cc:Work>
  </rdf:RDF>
 </metadata>
 <g transform="translate(-65.185 -41.161)" fill="#fff">
  <g transform="matrix(.16848 0 0 .16848 79.562 47.368)">
   <g transform="translate(-63.947,-88.179)" fill="#fff">
    <path class="st1" d="m283.1 483.6c-5.8-2.1-12.8-8.1-15.7-13.7-3.6-6.9-3.3-17.7 0.7-26.3 3.1-6.4 3.1-6.6 1.1-8.1-1.1-0.8-14.4-8.2-29.4-16.3s-28.1-15.2-29-15.7c-1.2-0.7-3.2 0-6.8 2.3-11.7 7.4-23.9 6.6-33.5-2.3-6.9-6.4-8.9-10.9-8.9-20.1 0-8.9 1.8-13.5 7.5-19.2 7.7-7.7 18-10.3 27.9-7 5.4 1.8 5.5 1.8 8.9-0.8 4-3 36.1-32.3 51.6-47l10.7-10.2-3.2-6.7c-6.5-13.5-3.2-28.5 8.2-37.5 6.2-4.9 10.8-6.4 19.7-6.4 20.8 0 35.3 21.8 27.5 41.3-2.1 5.4-2.1 5.5-0.1 8.8 1.7 2.9 30.6 37.8 45.9 55.6 2.7 3.1 5.7 5.6 6.7 5.6s4.4-1 7.6-2.2c14.9-5.9 30.6 0.7 36.8 15.5 4 9.5 0.5 22.3-8 30-6 5.4-10.4 7.1-18.4 7.1-5.6 0-7.7-0.6-13.6-3.8-4.4-2.4-7.8-3.6-9.2-3.2-2.4 0.6-39.3 25.9-47.5 32.5-5 4.1-5.4 5.6-2.8 11.7 2.5 6 2.2 15.4-0.6 21.3-3.1 6.5-10.8 13-17.5 15-6.8 1.9-10.9 1.9-16.6-0.2zm1.7-110.2v-57l-3.2-4.4c-1.8-2.4-3.5-4.4-3.8-4.4-1.3 0-65.9 58.7-65.9 59.9 0 0.3 1 3.3 2.2 6.5 1.2 3.3 2.1 8 2 10.7s-0.1 5.7-0.1 6.7c0.1 2.3 21.7 16.1 54.1 34.8 8.9 5.2 12 6.5 13.1 5.6 1.3-1.1 1.6-12.2 1.6-58.4zm27.4 50.4c42.8-26.9 50.8-32.3 51.3-34.3 0.3-1.2 0.7-5.9 0.8-10.6l0.3-8.4-21.8-25.9c-23.4-27.7-32-37.1-34-37.1-0.7 0-4.2 2-7.8 4.4l-6.6 4.4 0.3 56.9c0.3 51 0.7 59.6 2.6 59.6 0.2 0.1 7-4 14.9-9z" fill="#fff"/>
   </g>
  </g>
  <path d="m91.341 68.007c5.1714 0 9.3626-4.1385 9.3626-9.2449 0-5.1064-4.1912-9.2449-9.3626-9.2449-5.1714 0-9.3627 4.1385-9.3627 9.2449 0 5.1064 4.1912 9.2449 9.3627 9.2449zm6.5539 2.3112h-1.2215c-1.6238 0.73671-3.4305 1.1556-5.3323 1.1556s-3.7012-0.4189-5.3323-1.1556h-1.2215c-5.4274 0-9.8308 4.348-9.8308 9.7071v3.0046c0 1.914 1.5726 3.4668 3.511 3.4668h25.747c1.9384 0 3.511-1.5529 3.511-3.4668v-3.0046c0-5.3591-4.4034-9.7071-9.8308-9.7071z" stroke-width=".072684"/>
 </g>
</svg>
