<?xml version="1.0" encoding="UTF-8"?>
<svg class="" width="104" height="104" version="1.1" viewBox="0 0 4.875 4.875" xml:space="preserve" xmlns="http://www.w3.org/2000/svg" xmlns:cc="http://creativecommons.org/ns#" xmlns:dc="http://purl.org/dc/elements/1.1/" xmlns:rdf="http://www.w3.org/1999/02/22-rdf-syntax-ns#"><metadata><rdf:RDF><cc:Work rdf:about=""><dc:format>image/svg+xml</dc:format><dc:type rdf:resource="http://purl.org/dc/dcmitype/StillImage"/><dc:title/></cc:Work></rdf:RDF></metadata><g transform="matrix(.19531 0 0 .19531 .09375 .10937)"><path d="m23.908 12.331-3.963-8.587c-0.489-1.059-1.558-1.744-2.725-1.744h-10.44c-1.167 0-2.236 0.685-2.724 1.743l-3.964 8.588c-0.061 0.131-0.092 0.274-0.092 0.419v6.25c0 1.654 1.346 3 3 3h18c1.654 0 3-1.346 3-3v-6.25c0-0.145-0.031-0.288-0.092-0.419zm-18.036-7.75c0.163-0.353 0.519-0.581 0.908-0.581h10.44c0.389 0 0.745 0.228 0.908 0.581l3.424 7.419h-2.059c-0.778 0-1.452 0.501-1.676 1.247l-1.073 3.575c-0.031 0.106-0.127 0.178-0.238 0.178h-9.012c-0.111 0-0.207-0.072-0.239-0.179l-1.073-3.574c-0.224-0.746-0.897-1.247-1.676-1.247h-2.058z" fill="#999" data-original="#000000"/></g></svg>
