<?xml version="1.0" encoding="UTF-8"?>
<!-- Generator: Adobe Illustrator 19.0.0, SVG Export Plug-In . SVG Version: 6.00 Build 0)  -->
<svg enable-background="new 0 0 511.999 511.999" version="1.1" viewBox="0 0 512 512" xml:space="preserve" xmlns="http://www.w3.org/2000/svg" xmlns:cc="http://creativecommons.org/ns#" xmlns:dc="http://purl.org/dc/elements/1.1/" xmlns:rdf="http://www.w3.org/1999/02/22-rdf-syntax-ns#"><metadata><rdf:RDF><cc:Work rdf:about=""><dc:format>image/svg+xml</dc:format><dc:type rdf:resource="http://purl.org/dc/dcmitype/StillImage"/><dc:title/></cc:Work></rdf:RDF></metadata><g fill="#000">

	<g fill="#000">
		<path d="m438.09 273.32h-39.596c4.036 11.05 6.241 22.975 6.241 35.404v149.65c0 5.182-0.902 10.156-2.543 14.782h65.461c24.453 0 44.346-19.894 44.346-44.346v-81.581c1e-3 -40.753-33.155-73.909-73.909-73.909z" fill="#000"/>
	</g>


	<g fill="#000">
		<path d="m107.26 308.72c0-12.43 2.205-24.354 6.241-35.404h-39.596c-40.754 0-73.91 33.156-73.91 73.91v81.581c0 24.452 19.893 44.346 44.346 44.346h65.462c-1.641-4.628-2.543-9.601-2.543-14.783v-149.65z" fill="#000"/>
	</g>


	<g fill="#000">
		<path d="m301.26 234.82h-90.522c-40.754 0-73.91 33.156-73.91 73.91v149.65c0 8.163 6.618 14.782 14.782 14.782h208.78c8.164 0 14.782-6.618 14.782-14.782v-149.65c0-40.754-33.156-73.91-73.91-73.91z" fill="#000"/>
	</g>


	<g fill="#000">
		<path d="m256 38.84c-49.012 0-88.886 39.874-88.886 88.887 0 33.245 18.349 62.28 45.447 77.524 12.853 7.23 27.671 11.362 43.439 11.362s30.586-4.132 43.439-11.362c27.099-15.244 45.447-44.28 45.447-77.524 0-49.012-39.874-88.887-88.886-88.887z" fill="#000"/>
	</g>


	<g fill="#000">
		<path d="m99.918 121.69c-36.655 0-66.475 29.82-66.475 66.475s29.82 66.475 66.475 66.475c9.298 0 18.152-1.926 26.195-5.388 13.906-5.987 25.372-16.585 32.467-29.86 4.98-9.317 7.813-19.946 7.813-31.227 0-36.654-29.82-66.475-66.475-66.475z" fill="#000"/>
	</g>


	<g fill="#000">
		<path d="m412.08 121.69c-36.655 0-66.475 29.82-66.475 66.475 0 11.282 2.833 21.911 7.813 31.227 7.095 13.276 18.561 23.874 32.467 29.86 8.043 3.462 16.897 5.388 26.195 5.388 36.655 0 66.475-29.82 66.475-66.475s-29.82-66.475-66.475-66.475z" fill="#000"/>
	</g>
















</g></svg>
