<?xml version="1.0" encoding="UTF-8"?>
<!-- Generator: Adobe Illustrator 19.0.0, SVG Export Plug-In . SVG Version: 6.00 Build 0)  -->
<svg enable-background="new 0 0 512 512" version="1.1" viewBox="0 0 512 512" xml:space="preserve" xmlns="http://www.w3.org/2000/svg" xmlns:cc="http://creativecommons.org/ns#" xmlns:dc="http://purl.org/dc/elements/1.1/" xmlns:rdf="http://www.w3.org/1999/02/22-rdf-syntax-ns#"><metadata><rdf:RDF><cc:Work rdf:about=""><dc:format>image/svg+xml</dc:format><dc:type rdf:resource="http://purl.org/dc/dcmitype/StillImage"/><dc:title/></cc:Work></rdf:RDF></metadata>

	
		<path d="m437.02 408.74-152.74-152.74 152.74-152.74c7.8107-7.8107 7.8107-20.474 0-28.284-7.8107-7.8107-20.474-7.8107-28.284 0l-152.74 152.74-152.74-152.74c-7.8107-7.8107-20.474-7.8107-28.284 0-7.8107 7.8107-7.8107 20.474 0 28.284l152.74 152.74-152.74 152.74c-7.8107 7.8107-7.8107 20.474 0 28.284 7.8107 7.8107 20.474 7.8107 28.284 0l152.74-152.74 152.74 152.74c7.8107 7.8107 20.474 7.8107 28.284 0 7.8107-7.8107 7.8107-20.474 0-28.284z"/>
	
















</svg>
